<svg width="112" height="292" viewBox="0 0 112 292" fill="none" xmlns="http://www.w3.org/2000/svg">
<rect x="8" y="4" width="96" height="288" rx="24" fill="#F5F5F4"/>
<rect x="8" y="168" width="96" height="124" rx="24" fill="white"/>
<path fill-rule="evenodd" clip-rule="evenodd" d="M34 178C24.0589 178 16 186.059 16 196V240C16 249.941 24.0589 258 34 258H78C87.9411 258 96 249.941 96 240V196C96 186.059 87.9411 178 78 178H34ZM56 228.625C61.5229 228.625 66 224.008 66 218.313C66 212.617 61.5229 208 56 208C50.4772 208 46 212.617 46 218.313C46 224.008 50.4772 228.625 56 228.625ZM43.1429 194.741C43.1429 200.437 38.6657 205.054 33.1429 205.054C27.62 205.054 23.1429 200.437 23.1429 194.741C23.1429 189.046 27.62 184.429 33.1429 184.429C38.6657 184.429 43.1429 189.046 43.1429 194.741ZM33.1429 252.196C38.6657 252.196 43.1429 247.579 43.1429 241.884C43.1429 236.189 38.6657 231.571 33.1429 231.571C27.62 231.571 23.1429 236.189 23.1429 241.884C23.1429 247.579 27.62 252.196 33.1429 252.196ZM88.8572 194.741C88.8572 200.437 84.38 205.054 78.8572 205.054C73.3343 205.054 68.8572 200.437 68.8572 194.741C68.8572 189.046 73.3343 184.429 78.8572 184.429C84.38 184.429 88.8572 189.046 88.8572 194.741ZM78.8572 252.196C84.38 252.196 88.8572 247.579 88.8572 241.884C88.8572 236.189 84.38 231.571 78.8572 231.571C73.3343 231.571 68.8572 236.189 68.8572 241.884C68.8572 247.579 73.3343 252.196 78.8572 252.196Z" fill="#4B5563"/>
<g filter="url(#filter0_d_17_822)">
<rect x="8" y="4" width="96" height="148" rx="24" fill="#EF4444"/>
</g>
<path fill-rule="evenodd" clip-rule="evenodd" d="M34 63C24.0589 63 16 71.0589 16 81V125C16 134.941 24.0589 143 34 143H78C87.9411 143 96 134.941 96 125V81C96 71.0589 87.9411 63 78 63H34ZM56 113.625C61.5229 113.625 66 109.008 66 103.313C66 97.6171 61.5229 93 56 93C50.4772 93 46 97.6171 46 103.313C46 109.008 50.4772 113.625 56 113.625ZM43.1429 79.7411C43.1429 85.4365 38.6657 90.0536 33.1429 90.0536C27.62 90.0536 23.1429 85.4365 23.1429 79.7411C23.1429 74.0456 27.62 69.4286 33.1429 69.4286C38.6657 69.4286 43.1429 74.0456 43.1429 79.7411ZM33.1429 137.196C38.6657 137.196 43.1429 132.579 43.1429 126.884C43.1429 121.189 38.6657 116.571 33.1429 116.571C27.62 116.571 23.1429 121.189 23.1429 126.884C23.1429 132.579 27.62 137.196 33.1429 137.196ZM88.8572 79.7411C88.8572 85.4365 84.38 90.0536 78.8572 90.0536C73.3343 90.0536 68.8572 85.4365 68.8572 79.7411C68.8572 74.0456 73.3343 69.4286 78.8572 69.4286C84.38 69.4286 88.8572 74.0456 88.8572 79.7411ZM78.8572 137.196C84.38 137.196 88.8572 132.579 88.8572 126.884C88.8572 121.189 84.38 116.571 78.8572 116.571C73.3343 116.571 68.8572 121.189 68.8572 126.884C68.8572 132.579 73.3343 137.196 78.8572 137.196Z" fill="#4B5563"/>
<path fill-rule="evenodd" clip-rule="evenodd" d="M96 10.1111V36C96 45.9411 87.9411 54 78 54H34C24.0589 54 16 45.9411 16 36V10.1111C20.2461 6.31083 25.8532 4 32 4H80C86.1468 4 91.754 6.31083 96 10.1111Z" fill="#4B5563"/>
<path d="M65.8572 14.8839C65.8572 20.5794 61.38 25.1964 55.8572 25.1964C50.3343 25.1964 45.8572 20.5794 45.8572 14.8839C45.8572 9.18851 50.3343 4.57144 55.8572 4.57144C61.38 4.57144 65.8572 9.18851 65.8572 14.8839Z" fill="#EF4444"/>
<ellipse cx="33" cy="38.4554" rx="10" ry="10.3125" fill="#EF4444"/>
<ellipse cx="78.7142" cy="38.4554" rx="10" ry="10.3125" fill="#EF4444"/>
<defs>
<filter id="filter0_d_17_822" x="0" y="0" width="112" height="164" filterUnits="userSpaceOnUse" color-interpolation-filters="sRGB">
<feFlood flood-opacity="0" result="BackgroundImageFix"/>
<feColorMatrix in="SourceAlpha" type="matrix" values="0 0 0 0 0 0 0 0 0 0 0 0 0 0 0 0 0 0 127 0" result="hardAlpha"/>
<feOffset dy="4"/>
<feGaussianBlur stdDeviation="4"/>
<feComposite in2="hardAlpha" operator="out"/>
<feColorMatrix type="matrix" values="0 0 0 0 0.937255 0 0 0 0 0.266667 0 0 0 0 0.266667 0 0 0 0.5 0"/>
<feBlend mode="normal" in2="BackgroundImageFix" result="effect1_dropShadow_17_822"/>
<feBlend mode="normal" in="SourceGraphic" in2="effect1_dropShadow_17_822" result="shape"/>
</filter>
</defs>
</svg>
