<svg width="96" height="315" viewBox="0 0 96 315" fill="none" xmlns="http://www.w3.org/2000/svg">
<g clip-path="url(#clip0_16_585)">
<g filter="url(#filter0_d_16_585)">
<rect width="96" height="288" rx="24" fill="#34D399"/>
</g>
<path fill-rule="evenodd" clip-rule="evenodd" d="M26 9C16.0589 9 8 17.0589 8 27V71C8 80.9411 16.0589 89 26 89H70C79.9411 89 88 80.9411 88 71V27C88 17.0589 79.9411 9 70 9H26ZM48 59.625C53.5229 59.625 58 55.0079 58 49.3125C58 43.6171 53.5229 39 48 39C42.4772 39 38 43.6171 38 49.3125C38 55.0079 42.4772 59.625 48 59.625ZM35.1429 25.7411C35.1429 31.4365 30.6657 36.0536 25.1429 36.0536C19.62 36.0536 15.1429 31.4365 15.1429 25.7411C15.1429 20.0456 19.62 15.4286 25.1429 15.4286C30.6657 15.4286 35.1429 20.0456 35.1429 25.7411ZM25.1429 83.1964C30.6657 83.1964 35.1429 78.5794 35.1429 72.8839C35.1429 67.1885 30.6657 62.5714 25.1429 62.5714C19.62 62.5714 15.1429 67.1885 15.1429 72.8839C15.1429 78.5794 19.62 83.1964 25.1429 83.1964ZM80.8572 25.7411C80.8572 31.4365 76.38 36.0536 70.8572 36.0536C65.3343 36.0536 60.8572 31.4365 60.8572 25.7411C60.8572 20.0456 65.3343 15.4286 70.8572 15.4286C76.38 15.4286 80.8572 20.0456 80.8572 25.7411ZM70.8572 83.1964C76.38 83.1964 80.8572 78.5794 80.8572 72.8839C80.8572 67.1885 76.38 62.5714 70.8572 62.5714C65.3343 62.5714 60.8572 67.1885 60.8572 72.8839C60.8572 78.5794 65.3343 83.1964 70.8572 83.1964Z" fill="#4B5563"/>
<path fill-rule="evenodd" clip-rule="evenodd" d="M26 199C16.0589 199 8 207.059 8 217V261C8 270.941 16.0589 279 26 279H70C79.9411 279 88 270.941 88 261V217C88 207.059 79.9411 199 70 199H26ZM48 249.625C53.5229 249.625 58 245.008 58 239.313C58 233.617 53.5229 229 48 229C42.4772 229 38 233.617 38 239.313C38 245.008 42.4772 249.625 48 249.625ZM35.1429 215.741C35.1429 221.437 30.6657 226.054 25.1429 226.054C19.62 226.054 15.1429 221.437 15.1429 215.741C15.1429 210.046 19.62 205.429 25.1429 205.429C30.6657 205.429 35.1429 210.046 35.1429 215.741ZM25.1429 273.196C30.6657 273.196 35.1429 268.579 35.1429 262.884C35.1429 257.189 30.6657 252.571 25.1429 252.571C19.62 252.571 15.1429 257.189 15.1429 262.884C15.1429 268.579 19.62 273.196 25.1429 273.196ZM80.8572 215.741C80.8572 221.437 76.38 226.054 70.8572 226.054C65.3343 226.054 60.8572 221.437 60.8572 215.741C60.8572 210.046 65.3343 205.429 70.8572 205.429C76.38 205.429 80.8572 210.046 80.8572 215.741ZM70.8572 273.196C76.38 273.196 80.8572 268.579 80.8572 262.884C80.8572 257.189 76.38 252.571 70.8572 252.571C65.3343 252.571 60.8572 257.189 60.8572 262.884C60.8572 268.579 65.3343 273.196 70.8572 273.196Z" fill="#4B5563"/>
<path fill-rule="evenodd" clip-rule="evenodd" d="M26 104C16.0589 104 8 112.059 8 122V166C8 175.941 16.0589 184 26 184H70C79.9411 184 88 175.941 88 166V122C88 112.059 79.9411 104 70 104H26ZM48 154.625C53.5229 154.625 58 150.008 58 144.313C58 138.617 53.5229 134 48 134C42.4772 134 38 138.617 38 144.313C38 150.008 42.4772 154.625 48 154.625ZM35.1429 120.741C35.1429 126.437 30.6657 131.054 25.1429 131.054C19.62 131.054 15.1429 126.437 15.1429 120.741C15.1429 115.046 19.62 110.429 25.1429 110.429C30.6657 110.429 35.1429 115.046 35.1429 120.741ZM25.1429 178.196C30.6657 178.196 35.1429 173.579 35.1429 167.884C35.1429 162.189 30.6657 157.571 25.1429 157.571C19.62 157.571 15.1429 162.189 15.1429 167.884C15.1429 173.579 19.62 178.196 25.1429 178.196ZM80.8572 120.741C80.8572 126.437 76.38 131.054 70.8572 131.054C65.3343 131.054 60.8572 126.437 60.8572 120.741C60.8572 115.046 65.3343 110.429 70.8572 110.429C76.38 110.429 80.8572 115.046 80.8572 120.741ZM70.8572 178.196C76.38 178.196 80.8572 173.579 80.8572 167.884C80.8572 162.189 76.38 157.571 70.8572 157.571C65.3343 157.571 60.8572 162.189 60.8572 167.884C60.8572 173.579 65.3343 178.196 70.8572 178.196Z" fill="#4B5563"/>
<path d="M45.662 304.33C45.806 304.33 45.926 304.378 46.022 304.474C46.118 304.57 46.166 304.684 46.166 304.816V307.498C46.166 307.63 46.118 307.744 46.022 307.84C45.926 307.936 45.812 307.984 45.68 307.984H44.096V309.514C44.096 309.646 44.048 309.76 43.952 309.856C43.856 309.952 43.742 310 43.61 310H39.992C39.86 310 39.746 309.952 39.65 309.856C39.554 309.76 39.506 309.646 39.506 309.514V307.984H33.674C33.542 307.984 33.428 307.936 33.332 307.84C33.236 307.744 33.188 307.63 33.188 307.498V304.834C33.188 304.63 33.254 304.444 33.386 304.276L38.84 297.706C39.008 297.502 39.23 297.4 39.506 297.4H43.61C43.742 297.4 43.856 297.448 43.952 297.544C44.048 297.64 44.096 297.754 44.096 297.886V304.33H45.662ZM39.632 304.528V301.99L37.562 304.528H39.632ZM53.539 306.04C53.707 306.256 53.893 306.418 54.097 306.526C54.301 306.622 54.547 306.67 54.835 306.67C55.255 306.67 55.585 306.574 55.825 306.382C56.077 306.178 56.203 305.902 56.203 305.554C56.203 305.206 56.077 304.936 55.825 304.744C55.573 304.552 55.243 304.456 54.835 304.456C54.607 304.456 54.421 304.486 54.277 304.546C54.133 304.594 53.989 304.66 53.845 304.744C53.713 304.84 53.599 304.888 53.503 304.888H49.921C49.813 304.888 49.717 304.852 49.633 304.78C49.561 304.696 49.525 304.6 49.525 304.492C49.525 304.432 49.525 304.402 49.525 304.402L50.227 298.156C50.251 297.928 50.341 297.748 50.497 297.616C50.653 297.472 50.845 297.4 51.073 297.4H59.623C59.755 297.4 59.869 297.448 59.965 297.544C60.061 297.64 60.109 297.754 60.109 297.886V300.424C60.109 300.556 60.061 300.67 59.965 300.766C59.869 300.862 59.755 300.91 59.623 300.91H53.917L53.773 302.152C54.133 301.924 54.505 301.768 54.889 301.684C55.273 301.588 55.795 301.54 56.455 301.54C57.247 301.54 57.991 301.72 58.687 302.08C59.395 302.44 59.959 302.938 60.379 303.574C60.811 304.198 61.027 304.9 61.027 305.68C61.027 306.532 60.769 307.3 60.253 307.984C59.749 308.668 59.029 309.208 58.093 309.604C57.157 309.988 56.065 310.18 54.817 310.18C53.593 310.18 52.531 310 51.631 309.64C50.731 309.268 50.041 308.776 49.561 308.164C49.093 307.552 48.859 306.88 48.859 306.148C48.859 306.04 48.895 305.95 48.967 305.878C49.051 305.794 49.147 305.752 49.255 305.752H52.891C53.167 305.752 53.383 305.848 53.539 306.04Z" fill="#4B5563"/>
</g>
<defs>
<filter id="filter0_d_16_585" x="-8" y="-4" width="112" height="304" filterUnits="userSpaceOnUse" color-interpolation-filters="sRGB">
<feFlood flood-opacity="0" result="BackgroundImageFix"/>
<feColorMatrix in="SourceAlpha" type="matrix" values="0 0 0 0 0 0 0 0 0 0 0 0 0 0 0 0 0 0 127 0" result="hardAlpha"/>
<feOffset dy="4"/>
<feGaussianBlur stdDeviation="4"/>
<feComposite in2="hardAlpha" operator="out"/>
<feColorMatrix type="matrix" values="0 0 0 0 0.203922 0 0 0 0 0.827451 0 0 0 0 0.6 0 0 0 0.5 0"/>
<feBlend mode="normal" in2="BackgroundImageFix" result="effect1_dropShadow_16_585"/>
<feBlend mode="normal" in="SourceGraphic" in2="effect1_dropShadow_16_585" result="shape"/>
</filter>
<clipPath id="clip0_16_585">
<rect width="96" height="315" fill="white"/>
</clipPath>
</defs>
</svg>
