<svg viewBox="0 0 96 315" fill="none" xmlns="http://www.w3.org/2000/svg">
<g clip-path="url(#clip0_16_581)">
<g filter="url(#filter0_d_16_581)">
<rect width="96" height="288" rx="24" fill="white"/>
</g>
<path fill-rule="evenodd" clip-rule="evenodd" d="M26 9C16.0589 9 8 17.0589 8 27V71C8 80.9411 16.0589 89 26 89H70C79.9411 89 88 80.9411 88 71V27C88 17.0589 79.9411 9 70 9H26ZM48 59.625C53.5229 59.625 58 55.0079 58 49.3125C58 43.6171 53.5229 39 48 39C42.4772 39 38 43.6171 38 49.3125C38 55.0079 42.4772 59.625 48 59.625ZM35.1429 25.7411C35.1429 31.4365 30.6657 36.0536 25.1429 36.0536C19.62 36.0536 15.1429 31.4365 15.1429 25.7411C15.1429 20.0456 19.62 15.4286 25.1429 15.4286C30.6657 15.4286 35.1429 20.0456 35.1429 25.7411ZM70.8572 83.1964C76.38 83.1964 80.8572 78.5794 80.8572 72.8839C80.8572 67.1885 76.38 62.5714 70.8572 62.5714C65.3343 62.5714 60.8572 67.1885 60.8572 72.8839C60.8572 78.5794 65.3343 83.1964 70.8572 83.1964Z" fill="#4B5563"/>
<path fill-rule="evenodd" clip-rule="evenodd" d="M26 199C16.0589 199 8 207.059 8 217V261C8 270.941 16.0589 279 26 279H70C79.9411 279 88 270.941 88 261V217C88 207.059 79.9411 199 70 199H26ZM48 249.625C53.5229 249.625 58 245.008 58 239.313C58 233.617 53.5229 229 48 229C42.4772 229 38 233.617 38 239.313C38 245.008 42.4772 249.625 48 249.625ZM35.1429 215.741C35.1429 221.437 30.6657 226.054 25.1429 226.054C19.62 226.054 15.1429 221.437 15.1429 215.741C15.1429 210.046 19.62 205.429 25.1429 205.429C30.6657 205.429 35.1429 210.046 35.1429 215.741ZM25.1429 273.196C30.6657 273.196 35.1429 268.579 35.1429 262.884C35.1429 257.189 30.6657 252.571 25.1429 252.571C19.62 252.571 15.1429 257.189 15.1429 262.884C15.1429 268.579 19.62 273.196 25.1429 273.196ZM80.8572 215.741C80.8572 221.437 76.38 226.054 70.8572 226.054C65.3343 226.054 60.8572 221.437 60.8572 215.741C60.8572 210.046 65.3343 205.429 70.8572 205.429C76.38 205.429 80.8572 210.046 80.8572 215.741ZM70.8572 273.196C76.38 273.196 80.8572 268.579 80.8572 262.884C80.8572 257.189 76.38 252.571 70.8572 252.571C65.3343 252.571 60.8572 257.189 60.8572 262.884C60.8572 268.579 65.3343 273.196 70.8572 273.196Z" fill="#4B5563"/>
<path fill-rule="evenodd" clip-rule="evenodd" d="M8 122C8 112.059 16.0589 104 26 104H70C79.9411 104 88 112.059 88 122V166C88 175.941 79.9411 184 70 184H26C16.0589 184 8 175.941 8 166V122ZM35.1429 120.741C35.1429 126.437 30.6657 131.054 25.1429 131.054C19.62 131.054 15.1429 126.437 15.1429 120.741C15.1429 115.046 19.62 110.429 25.1429 110.429C30.6657 110.429 35.1429 115.046 35.1429 120.741ZM25.1429 178.196C30.6657 178.196 35.1429 173.579 35.1429 167.884C35.1429 162.189 30.6657 157.571 25.1429 157.571C19.62 157.571 15.1429 162.189 15.1429 167.884C15.1429 173.579 19.62 178.196 25.1429 178.196ZM80.8572 120.741C80.8572 126.437 76.38 131.054 70.8572 131.054C65.3343 131.054 60.8572 126.437 60.8572 120.741C60.8572 115.046 65.3343 110.429 70.8572 110.429C76.38 110.429 80.8572 115.046 80.8572 120.741ZM70.8572 178.196C76.38 178.196 80.8572 173.579 80.8572 167.884C80.8572 162.189 76.38 157.571 70.8572 157.571C65.3343 157.571 60.8572 162.189 60.8572 167.884C60.8572 173.579 65.3343 178.196 70.8572 178.196Z" fill="#4B5563"/>
<path d="M45.464 306.31C45.596 306.31 45.71 306.358 45.806 306.454C45.902 306.55 45.95 306.664 45.95 306.796V309.514C45.95 309.646 45.902 309.76 45.806 309.856C45.71 309.952 45.596 310 45.464 310H34.592C34.46 310 34.346 309.952 34.25 309.856C34.154 309.76 34.106 309.646 34.106 309.514V306.796C34.106 306.664 34.154 306.55 34.25 306.454C34.346 306.358 34.46 306.31 34.592 306.31H37.922V301.99L36.104 303.196C36.008 303.256 35.918 303.286 35.834 303.286C35.678 303.286 35.54 303.208 35.42 303.052L33.962 300.784C33.926 300.712 33.908 300.628 33.908 300.532C33.908 300.34 33.98 300.19 34.124 300.082L38.12 297.472C38.204 297.424 38.3 297.4 38.408 297.4H42.116C42.248 297.4 42.362 297.448 42.458 297.544C42.554 297.64 42.602 297.754 42.602 297.886V306.31H45.464ZM60.487 306.31C60.619 306.31 60.733 306.358 60.829 306.454C60.925 306.55 60.973 306.664 60.973 306.796V309.514C60.973 309.646 60.925 309.76 60.829 309.856C60.733 309.952 60.619 310 60.487 310H49.633C49.501 310 49.387 309.952 49.291 309.856C49.195 309.76 49.147 309.646 49.147 309.514V307.3C49.147 307.12 49.171 306.946 49.219 306.778C49.267 306.61 49.399 306.46 49.615 306.328C51.655 305.044 53.179 304.018 54.187 303.25C55.207 302.482 55.717 301.888 55.717 301.468C55.717 301.24 55.675 301.066 55.591 300.946C55.507 300.814 55.321 300.748 55.033 300.748C54.697 300.748 54.463 300.832 54.331 301C54.199 301.168 54.109 301.342 54.061 301.522C54.025 301.702 53.995 301.822 53.971 301.882C53.935 301.978 53.881 302.038 53.809 302.062C53.749 302.074 53.683 302.08 53.611 302.08C53.539 302.08 53.491 302.08 53.467 302.08H49.813C49.693 302.08 49.585 302.038 49.489 301.954C49.405 301.858 49.363 301.75 49.363 301.63C49.363 300.742 49.597 299.968 50.065 299.308C50.545 298.636 51.223 298.12 52.099 297.76C52.975 297.4 54.001 297.22 55.177 297.22C56.929 297.22 58.255 297.568 59.155 298.264C60.055 298.96 60.505 299.95 60.505 301.234C60.505 301.834 60.313 302.398 59.929 302.926C59.557 303.454 59.083 303.94 58.507 304.384C57.943 304.828 57.169 305.374 56.185 306.022L55.753 306.31H60.487Z" fill="#4B5563"/>
</g>
<defs>
<filter id="filter0_d_16_581" x="-8" y="-4" width="112" height="304" filterUnits="userSpaceOnUse" color-interpolation-filters="sRGB">
<feFlood flood-opacity="0" result="BackgroundImageFix"/>
<feColorMatrix in="SourceAlpha" type="matrix" values="0 0 0 0 0 0 0 0 0 0 0 0 0 0 0 0 0 0 127 0" result="hardAlpha"/>
<feOffset dy="4"/>
<feGaussianBlur stdDeviation="4"/>
<feComposite in2="hardAlpha" operator="out"/>
<feColorMatrix type="matrix" values="0 0 0 0 0.611765 0 0 0 0 0.639216 0 0 0 0 0.686275 0 0 0 0.5 0"/>
<feBlend mode="normal" in2="BackgroundImageFix" result="effect1_dropShadow_16_581"/>
<feBlend mode="normal" in="SourceGraphic" in2="effect1_dropShadow_16_581" result="shape"/>
</filter>
<clipPath id="clip0_16_581">
<rect width="96" height="315" fill="white"/>
</clipPath>
</defs>
</svg>
