<svg width="96" height="315" viewBox="0 0 96 315" fill="none" xmlns="http://www.w3.org/2000/svg">
<g clip-path="url(#clip0_16_583)">
<g filter="url(#filter0_d_16_583)">
<rect width="96" height="288" rx="24" fill="#FACC15"/>
</g>
<path fill-rule="evenodd" clip-rule="evenodd" d="M26 9C16.0589 9 8 17.0589 8 27V71C8 80.9411 16.0589 89 26 89H70C79.9411 89 88 80.9411 88 71V27C88 17.0589 79.9411 9 70 9H26ZM48 59.625C53.5229 59.625 58 55.0079 58 49.3125C58 43.6171 53.5229 39 48 39C42.4772 39 38 43.6171 38 49.3125C38 55.0079 42.4772 59.625 48 59.625ZM35.1429 25.7411C35.1429 31.4365 30.6657 36.0536 25.1429 36.0536C19.62 36.0536 15.1429 31.4365 15.1429 25.7411C15.1429 20.0456 19.62 15.4286 25.1429 15.4286C30.6657 15.4286 35.1429 20.0456 35.1429 25.7411ZM25.1429 83.1964C30.6657 83.1964 35.1429 78.5794 35.1429 72.8839C35.1429 67.1885 30.6657 62.5714 25.1429 62.5714C19.62 62.5714 15.1429 67.1885 15.1429 72.8839C15.1429 78.5794 19.62 83.1964 25.1429 83.1964ZM80.8572 25.7411C80.8572 31.4365 76.38 36.0536 70.8572 36.0536C65.3343 36.0536 60.8572 31.4365 60.8572 25.7411C60.8572 20.0456 65.3343 15.4286 70.8572 15.4286C76.38 15.4286 80.8572 20.0456 80.8572 25.7411ZM70.8572 83.1964C76.38 83.1964 80.8572 78.5794 80.8572 72.8839C80.8572 67.1885 76.38 62.5714 70.8572 62.5714C65.3343 62.5714 60.8572 67.1885 60.8572 72.8839C60.8572 78.5794 65.3343 83.1964 70.8572 83.1964Z" fill="#4B5563"/>
<path fill-rule="evenodd" clip-rule="evenodd" d="M26 104C16.0589 104 8 112.059 8 122V166C8 175.941 16.0589 184 26 184H70C79.9411 184 88 175.941 88 166V122C88 112.059 79.9411 104 70 104H26ZM48 154.625C53.5229 154.625 58 150.008 58 144.313C58 138.617 53.5229 134 48 134C42.4772 134 38 138.617 38 144.313C38 150.008 42.4772 154.625 48 154.625ZM35.1429 120.741C35.1429 126.437 30.6657 131.054 25.1429 131.054C19.62 131.054 15.1429 126.437 15.1429 120.741C15.1429 115.046 19.62 110.429 25.1429 110.429C30.6657 110.429 35.1429 115.046 35.1429 120.741ZM25.1429 178.196C30.6657 178.196 35.1429 173.579 35.1429 167.884C35.1429 162.189 30.6657 157.571 25.1429 157.571C19.62 157.571 15.1429 162.189 15.1429 167.884C15.1429 173.579 19.62 178.196 25.1429 178.196ZM80.8572 120.741C80.8572 126.437 76.38 131.054 70.8572 131.054C65.3343 131.054 60.8572 126.437 60.8572 120.741C60.8572 115.046 65.3343 110.429 70.8572 110.429C76.38 110.429 80.8572 115.046 80.8572 120.741ZM70.8572 178.196C76.38 178.196 80.8572 173.579 80.8572 167.884C80.8572 162.189 76.38 157.571 70.8572 157.571C65.3343 157.571 60.8572 162.189 60.8572 167.884C60.8572 173.579 65.3343 178.196 70.8572 178.196Z" fill="#4B5563"/>
<path d="M45.194 306.31C45.326 306.31 45.44 306.358 45.536 306.454C45.632 306.55 45.68 306.664 45.68 306.796V309.514C45.68 309.646 45.632 309.76 45.536 309.856C45.44 309.952 45.326 310 45.194 310H34.34C34.208 310 34.094 309.952 33.998 309.856C33.902 309.76 33.854 309.646 33.854 309.514V307.3C33.854 307.12 33.878 306.946 33.926 306.778C33.974 306.61 34.106 306.46 34.322 306.328C36.362 305.044 37.886 304.018 38.894 303.25C39.914 302.482 40.424 301.888 40.424 301.468C40.424 301.24 40.382 301.066 40.298 300.946C40.214 300.814 40.028 300.748 39.74 300.748C39.404 300.748 39.17 300.832 39.038 301C38.906 301.168 38.816 301.342 38.768 301.522C38.732 301.702 38.702 301.822 38.678 301.882C38.642 301.978 38.588 302.038 38.516 302.062C38.456 302.074 38.39 302.08 38.318 302.08C38.246 302.08 38.198 302.08 38.174 302.08H34.52C34.4 302.08 34.292 302.038 34.196 301.954C34.112 301.858 34.07 301.75 34.07 301.63C34.07 300.742 34.304 299.968 34.772 299.308C35.252 298.636 35.93 298.12 36.806 297.76C37.682 297.4 38.708 297.22 39.884 297.22C41.636 297.22 42.962 297.568 43.862 298.264C44.762 298.96 45.212 299.95 45.212 301.234C45.212 301.834 45.02 302.398 44.636 302.926C44.264 303.454 43.79 303.94 43.214 304.384C42.65 304.828 41.876 305.374 40.892 306.022L40.46 306.31H45.194ZM60.973 305.338C60.973 306.934 60.415 308.14 59.299 308.956C58.195 309.772 56.743 310.18 54.943 310.18C53.131 310.18 51.673 309.772 50.569 308.956C49.465 308.14 48.913 306.922 48.913 305.302V302.098C48.913 301.018 49.183 300.112 49.723 299.38C50.263 298.648 50.983 298.108 51.883 297.76C52.795 297.4 53.815 297.22 54.943 297.22C56.071 297.22 57.085 297.4 57.985 297.76C58.897 298.108 59.623 298.648 60.163 299.38C60.703 300.1 60.973 300.994 60.973 302.062V305.338ZM53.773 305.482C53.773 305.818 53.887 306.1 54.115 306.328C54.343 306.544 54.619 306.652 54.943 306.652C55.267 306.652 55.543 306.538 55.771 306.31C55.999 306.082 56.113 305.806 56.113 305.482V301.882C56.113 301.546 55.999 301.27 55.771 301.054C55.555 300.826 55.279 300.712 54.943 300.712C54.607 300.712 54.325 300.826 54.097 301.054C53.881 301.282 53.773 301.558 53.773 301.882V305.482Z" fill="#4B5563"/>
</g>
<defs>
<filter id="filter0_d_16_583" x="-8" y="-4" width="112" height="304" filterUnits="userSpaceOnUse" color-interpolation-filters="sRGB">
<feFlood flood-opacity="0" result="BackgroundImageFix"/>
<feColorMatrix in="SourceAlpha" type="matrix" values="0 0 0 0 0 0 0 0 0 0 0 0 0 0 0 0 0 0 127 0" result="hardAlpha"/>
<feOffset dy="4"/>
<feGaussianBlur stdDeviation="4"/>
<feComposite in2="hardAlpha" operator="out"/>
<feColorMatrix type="matrix" values="0 0 0 0 0.980392 0 0 0 0 0.8 0 0 0 0 0.0823529 0 0 0 0.5 0"/>
<feBlend mode="normal" in2="BackgroundImageFix" result="effect1_dropShadow_16_583"/>
<feBlend mode="normal" in="SourceGraphic" in2="effect1_dropShadow_16_583" result="shape"/>
</filter>
<clipPath id="clip0_16_583">
<rect width="96" height="315" fill="white"/>
</clipPath>
</defs>
</svg>
